<?xml version="1.0" encoding="utf-8"?>
<!-- Generator: Adobe Illustrator 21.0.0, SVG Export Plug-In . SVG Version: 6.00 Build 0)  -->
<svg version="1.1" id="Layer_1" xmlns="http://www.w3.org/2000/svg" xmlns:xlink="http://www.w3.org/1999/xlink" x="0px" y="0px"
	 viewBox="0 0 262.1 239.9" style="enable-background:new 0 0 262.1 239.9;" xml:space="preserve">
<style type="text/css">
	.st0{fill:#2B5ACC;}
	.st1{fill:none;stroke:#000000;stroke-width:0.5;stroke-miterlimit:10;}
</style>
<g>
	<path class="st0" d="M49.7,239.9l153.6-11.8c7.3-0.6,13.4-5.7,15.3-12.8l43-166.8c2.6-10.2-4.4-20.3-14.9-21.3L23.1,4.3
		c-11-1.1-20.2,8.3-18.7,19.3l27,201.4C32.6,234.1,40.6,240.6,49.7,239.9z"/>
</g>
<path class="st1" d="M45.7,235.9l153.6-11.8c7.3-0.6,13.4-5.7,15.3-12.8l43-166.8c2.6-10.2-4.4-20.3-14.9-21.3L19.1,0.3
	C8.1-0.8-1.1,8.7,0.4,19.7l27,201.4C28.6,230.1,36.6,236.6,45.7,235.9z"/>
</svg>
