<?xml version="1.0" encoding="utf-8"?>
<!-- Generator: Adobe Illustrator 21.0.0, SVG Export Plug-In . SVG Version: 6.00 Build 0)  -->
<svg version="1.1" id="Layer_1" xmlns="http://www.w3.org/2000/svg" xmlns:xlink="http://www.w3.org/1999/xlink" x="0px" y="0px"
	 viewBox="0 0 230 65" style="enable-background:new 0 0 230 65;" xml:space="preserve">
<style type="text/css">
	.st0{fill:#4D4D4D;}
	.st1{fill:#FFFFFF;}
</style>
<g>
	<path class="st0" d="M25,62.5C12.6,62.5,2.5,52.4,2.5,40V25C2.5,12.6,12.6,2.5,25,2.5h180c12.4,0,22.5,10.1,22.5,22.5v15
		c0,12.4-10.1,22.5-22.5,22.5H25z"/>
	<path class="st1" d="M205,5c11,0,20,9,20,20v15c0,11-9,20-20,20H25C14,60,5,51,5,40V25C5,14,14,5,25,5H205 M205,0H25
		C11.2,0,0,11.2,0,25v15c0,13.8,11.2,25,25,25h180c13.8,0,25-11.2,25-25V25C230,11.2,218.8,0,205,0L205,0z"/>
</g>
</svg>
