<?xml version="1.0" encoding="utf-8"?>
<!-- Generator: Adobe Illustrator 21.0.0, SVG Export Plug-In . SVG Version: 6.00 Build 0)  -->
<svg version="1.1" id="Layer_1" xmlns="http://www.w3.org/2000/svg" xmlns:xlink="http://www.w3.org/1999/xlink" x="0px" y="0px"
	 viewBox="0 0 277.3 242.8" style="enable-background:new 0 0 277.3 242.8;" xml:space="preserve">
<style type="text/css">
	.st0{fill:#CC3362;}
	.st1{fill:none;stroke:#000000;stroke-width:0.5;stroke-miterlimit:10;}
</style>
<g>
	<path class="st0" d="M231.3,0.7L25.8,44.4C7.9,48.2-3.4,66.1,0.9,83.9l31.4,130.1C35.9,228.7,49,239,64,239h151.7
		c16.4,0,30.2-12.2,32.3-28.4l22.3-173.8C273.3,14.5,253.3-3.9,231.3,0.7z"/>
</g>
<path class="st1" d="M237.7,4.3L32.2,47.9C14.2,51.8,3,69.6,7.3,87.5l31.4,130.1c3.5,14.6,16.6,24.9,31.7,24.9h151.7
	c16.4,0,30.2-12.2,32.3-28.4l22.3-173.8C279.7,18,259.7-0.4,237.7,4.3z"/>
</svg>
